<?xml version="1.0" encoding="UTF-8"?>
<svg id="Layer_1" xmlns="http://www.w3.org/2000/svg" version="1.1" viewBox="0 0 24 24">
  <!-- Generator: Adobe Illustrator 29.8.2, SVG Export Plug-In . SVG Version: 2.1.1 Build 3)  -->
  <defs>
    <style>
      .st0 {
        fill: #2563eb;
      }
    </style>
  </defs>
  <path class="st0" d="M20.14,4.14l-1.19,1.19c-.13.13-.34.13-.47,0l-1.19-1.19c-.1-.1-.1-.27,0-.38l1.24-1.24c.1-.1.27-.1.38,0l1.24,1.24c.1.1.1.27,0,.38Z"/>
  <path class="st0" d="M19.78,11.54v-4.56h-2.29v2.28h0s0,0,0,0v1.95c0,.18-.15.33-.33.33h-6.2c-.18,0-.33-.15-.33-.33v-3.9c0-.18-.15-.33-.33-.33h-1.62c-.18,0-.33.15-.33.33v1.94h0s0,0,0,0v1.95c0,.18-.15.33-.33.33h-1.62c-.18,0-.33-.15-.33-.33v-6.15c0-.18.15-.33.33-.33h6.19c.18,0,.33.15.33.33v3.86c0,.18.15.33.33.33h1.62c.18,0,.33-.15.33-.33v-4.2h-.01.01v-1.95c0-.18-.15-.33-.33-.33H4.11c-.18,0-.33.15-.33.33v14.07c0,.09.03.17.1.23.35.35,1.54,1.54,2.19,2.18h0s2.19,2.2,2.19,2.2c.06.06.15.1.24.1h6.57c.09,0,.17-.04.24-.1l4.38-4.38c.06-.06.1-.15.1-.23v-5.3h0,0s0,0,0,0ZM11,14.38c.2-.18.34-.37.46-.56.21-.36.29-.71.33-.95.03.25.11.6.32.95.08.13.18.27.29.4.49.54,1.1.72,1.47.78-.35.05-.85.2-1.3.6-.34.31-.54.66-.65.97-.07.2-.11.39-.13.53-.02-.15-.06-.34-.13-.53-.09-.26-.24-.55-.48-.81-.49-.55-1.1-.72-1.48-.78.35-.05.85-.2,1.31-.61ZM17.5,16.84c0,.09-.03.17-.1.23l-2.09,2.1c-.06.06-.15.1-.24.1h-6.6c-.08,0-.16-.03-.21-.09l-1.96-1.97c-.06-.06-.1-.15-.1-.23v-.86c0-.09.03-.17.1-.23l1.72-1.73c.12-.12.33-.04.33.13v1.69c0,.09.03.17.1.23l2.09,2.1c.06.06.15.1.24.1h2.01c.09,0,.17-.03.23-.1l2.1-2.1c.06-.06.1-.15.1-.23v-1.69c0-.17.21-.26.33-.14l1.87,1.87c.06.06.09.14.09.22v.6Z"/>
</svg>